<?xml version="1.0" encoding="utf-8"?>
<!-- Generator: Adobe Illustrator 21.1.0, SVG Export Plug-In . SVG Version: 6.00 Build 0)  -->
<svg version="1.1" id="Layer_1" xmlns="http://www.w3.org/2000/svg" xmlns:xlink="http://www.w3.org/1999/xlink" x="0px" y="0px"
	 viewBox="0 0 1110 316" style="enable-background:new 0 0 1110 316;" xml:space="preserve">
<style type="text/css">
	.st0flowwow{fill:#262424;}
</style>
<path class="st0flowwow" d="M301.7,77.7c-15.1,0-25.9,6.5-32.4,17.3c-6.5,10.8-6.5,15.1-6.5,32.4v8.6h-13v23.8h13v88.5h28.1v-88.5H319V136
	h-28.1v-8.6c0-17.3,2.2-19.4,10.8-23.8c2.2,0,4.3-2.2,6.5-2.2c2.2,0,6.5,0,6.5,2.2l4.3,2.2V84.2h-2.2
	C310.4,79.9,306,77.7,301.7,77.7z"/>
<path class="st0flowwow" d="M362.2,75.6h-28.1v170.6h28.1V75.6z"/>
<path class="st0flowwow" d="M442.1,133.9c-32.4,0-58.3,25.9-58.3,58.3c0,32.4,25.9,58.3,58.3,58.3s58.3-25.9,58.3-58.3
	C498.2,157.6,474.5,133.9,442.1,133.9z M442.1,224.6c-17.3,0-30.2-15.1-30.2-34.6c0-19.4,13-34.5,30.2-34.5
	c17.3,0,30.2,15.1,30.2,34.5C472.3,211.6,459.4,224.6,442.1,224.6z"/>
<path class="st0flowwow" d="M761.7,205.1L740.1,136h-21.6l-21.6,69.1L673.1,136h-25.9l-23.8,69.1L599.7,136h-19.4l-23.8,69.1L532.8,136
	h-28.1l43.2,110.1h17.3l23.8-64.8l25.9,64.8h17.3l28.1-73.4l28.1,73.4h17.3l23.8-64.8l23.8,64.8h17.3L813.5,136h-28.1L761.7,205.1z"
	/>
<path class="st0flowwow" d="M876.1,133.9c-32.4,0-58.3,25.9-58.3,58.3c0,32.4,25.9,58.3,58.3,58.3c32.4,0,58.3-25.9,58.3-58.3
	C934.4,157.6,908.5,133.9,876.1,133.9z M876.1,224.6c-17.3,0-30.2-15.1-30.2-34.6c0-19.4,13-34.5,30.2-34.5
	c17.3,0,30.2,15.1,30.2,34.5C906.3,211.6,893.4,224.6,876.1,224.6z"/>
<path class="st0flowwow" d="M1081.2,136l-23.8,69.1l-19.4-60.5l-4.3-8.6h-19.4l-2.2,8.6l-21.6,60.5L968.9,136h-28.1l41,110.1h17.3
	l25.9-64.8l23.8,64.8h17.3l43.2-110.1H1081.2z"/>
<path class="st0flowwow" d="M187.3,146.8c-32.4,6.5-60.5,28.1-79.9,54v-56.1c28.1-4.3,47.5-21.6,58.3-49.7c8.6-23.8,10.8-62.6,8.6-84.2V8.6
	h-2.2c-17.3,4.3-38.9,17.3-49.7,23.8C116,21.6,103.1,6.5,94.4,0c-8.6,8.6-21.6,21.6-28.1,32.4C57.7,25.9,34,13,16.7,8.6h-2.2v2.2
	c-2.2,21.6,0,60.5,8.6,84.2c10.8,28.1,32.4,45.3,58.3,49.7v56.1C62.1,172.8,34,153.3,3.8,144.7H1.6v2.2
	C-7,209.5,18.9,289.4,94.4,315.3C170,289.4,195.9,209.5,187.3,146.8z M81.5,282.9c-34.5-23.8-54-56.1-56.1-101.5
	C51.3,196.5,81.5,226.7,81.5,282.9z M107.4,282.9c0-54,30.2-84.2,56.1-101.5C161.4,226.7,141.9,259.1,107.4,282.9z M94.4,123.1
	c-47.5,0-54-43.2-56.1-77.7c10.8,6.5,21.6,13,32.4,25.9l2.2,2.2v-2.2c6.5-15.1,13-25.9,23.8-34.6c10.8,10.8,15.1,19.4,23.8,34.6v2.2
	l2.2-2.2c10.8-10.8,21.6-19.4,32.4-25.9C150.6,79.9,141.9,123.1,94.4,123.1z"/>
</svg>
