<?xml version="1.0" encoding="utf-8"?>
<!-- Generator: Adobe Illustrator 21.1.0, SVG Export Plug-In . SVG Version: 6.00 Build 0)  -->
<svg version="1.1" id="Layer_1" xmlns="http://www.w3.org/2000/svg" xmlns:xlink="http://www.w3.org/1999/xlink" x="0px" y="0px"
	 viewBox="0 0 573 128" style="enable-background:new 0 0 573 128;" xml:space="preserve">
<style type="text/css">
	.st0zon{fill:#1C1C1B;}
</style>
<g>
	<path class="st0zon" d="M64.2,1.6C29.9,1.6,2,29.3,2,63.4c0,34.1,27.8,61.8,62.2,61.8c34.3,0,62.2-27.7,62.2-61.8
		C126.3,29.3,98.5,1.6,64.2,1.6z M64.2,96.2c-18.2,0-33-14.7-33-32.8c0-18.1,14.8-32.8,33-32.8s32.9,14.7,33,32.8
		C97.2,81.5,82.4,96.2,64.2,96.2z"/>
	<path class="st0zon" d="M247.5,4.1h-88.9c-7.8,0-14.1,6.3-14.1,14.1c0,7.8,6.3,14.1,14.1,14.1l42.4,0.4l-61.8,81.5
		c-3.3,4.4-3.2,8.6,3,8.6l97.4-0.3c7.8,0,14.1-6.3,14.1-14.1c0-7.8-6.3-14.1-14.1-14.1h-49.5l61.3-80.9
		C256.4,6.9,252.9,4.1,247.5,4.1z"/>
	<path class="st0zon" d="M349.2,1.5c-47.7,0-87.1,27.7-87.1,61.9c0,34.2,39.4,61.9,87.1,61.9s86.4-27.7,86.4-61.9
		C435.6,29.2,396.9,1.5,349.2,1.5z M349.2,96c-31.8,0-57.6-14.6-57.6-32.6s25.8-32.6,57.6-32.6s57,14.6,57,32.6S381.1,96,349.2,96z"
		/>
	<path class="st0zon" d="M570,18.1c0-7.8-7-14.1-14.8-14s-14.1,6.4-14,14.2l0.5,49.7l-76-60.8c-4.9-4-9.3-5.6-9.2,2.9
		c0.4,32.5,0.3,65.7,0.3,98.2c0,7.8,6.3,14.1,14.1,14.1s14.1-6.3,14.1-14.1V59.1l75.7,60.4c4,3.2,9.6,5.9,9.6-3.7L570,18.1z"/>
</g>
</svg>
