<?xml version="1.0" encoding="utf-8"?>
<!-- Generator: Adobe Illustrator 21.1.0, SVG Export Plug-In . SVG Version: 6.00 Build 0)  -->
<svg version="1.1" id="Layer_1" xmlns="http://www.w3.org/2000/svg" xmlns:xlink="http://www.w3.org/1999/xlink" x="0px" y="0px"
	 viewBox="0 0 430.7 55.3" style="enable-background:new 0 0 430.7 55.3;" xml:space="preserve">
<g>
	<polygon points="17.7,52.2 4.8,3.9 13.3,3.9 23.2,41 33.8,3.9 41.7,3.9 52.4,41.2 62.4,3.9 70.9,3.9 57.9,52.2 48.1,52.2 
		37.8,16.1 27.5,52.2 	"/>
	<polygon points="76.7,3.9 84.8,3.9 84.8,52.1 76.7,52.1 	"/>
	<polygon points="102,44.6 121.7,44.6 121.7,52.1 94.1,52.1 94.1,3.9 102,3.9 	"/>
	<path d="M146.5,3.9c6.6,0,12.1,2.4,16.5,7s6.6,10.3,6.6,17.1c0,6.7-2.2,12.5-6.6,17.1c-4.3,4.6-9.8,6.9-16.5,6.9h-19V3.8L146.5,3.9
		L146.5,3.9z M146.5,44.6L146.5,44.6c4.6,0,8.3-1.6,11.1-4.7c2.9-3.1,4.3-7.1,4.3-11.8c0-4.8-1.4-8.7-4.3-11.8
		c-2.8-3.1-6.6-4.7-11.1-4.7h-11v33H146.5L146.5,44.6z"/>
	<path d="M212.1,38.4c0,3.9-1.4,7.2-4.2,9.8c-2.8,2.6-6.2,3.9-10.3,3.9H177V3.9h19.1c4,0,7.3,1.3,10,3.8c2.8,2.6,4.1,5.7,4.1,9.5
		c0,4.2-1.7,7.5-4.9,9.8C209.6,29.4,212.1,33.4,212.1,38.4L212.1,38.4z M184.9,11.4L184.9,11.4v12.7h11.2c3.5,0,6.2-2.8,6.2-6.3
		c0-3.6-2.7-6.3-6.2-6.3L184.9,11.4L184.9,11.4z M197.7,44.8L197.7,44.8c3.7,0,6.6-3,6.6-6.8s-2.9-6.7-6.6-6.7H185v13.5H197.7
		L197.7,44.8z"/>
	<polygon points="227.6,44.6 248.9,44.6 248.9,52.2 219.7,52.2 219.7,3.9 248.6,3.9 248.6,11.5 227.6,11.5 227.6,24 246.9,24 
		246.9,31.5 227.6,31.5 	"/>
	<path d="M283.5,52.2l-10.2-17.6H264v17.6h-7.9V4h19.3c4.3,0,8,1.5,11,4.6c3,2.9,4.6,6.6,4.6,11c0,6.1-3.8,11.7-9.6,14l11,18.7
		L283.5,52.2L283.5,52.2z M263.9,11.4L263.9,11.4v16.1h11.4c4.2,0,7.6-3.6,7.6-8.1c0-4.4-3.4-8.1-7.6-8.1L263.9,11.4L263.9,11.4z"/>
	<path d="M325.8,52.2l-10.2-17.6h-9.3v17.6h-7.9V3.9h19.3c4.3,0,8,1.5,11,4.6c3,3,4.6,6.6,4.6,11c0,6.1-3.8,11.7-9.6,14l11,18.8
		L325.8,52.2L325.8,52.2z M306.2,11.4L306.2,11.4v16.1h11.3c4.2,0,7.6-3.6,7.6-8.1s-3.4-8.1-7.6-8.1L306.2,11.4L306.2,11.4z"/>
	<polygon points="340.3,3.9 348.2,3.9 348.2,52.2 340.3,52.2 	"/>
	<polygon points="365.5,44.6 386.9,44.6 386.9,52.2 357.6,52.2 357.6,3.9 386.5,3.9 386.5,11.5 365.5,11.5 365.5,24 384.8,24 
		384.8,31.5 365.5,31.5 	"/>
	<path d="M392.4,41.2l6.8-4c1.9,5.4,5.9,8.1,12,8.1c6,0,9-2.6,9-6.3c0-2-0.8-3.4-2.4-4.4c-1.6-1.1-4.5-2.2-8.6-3.4
		c-4.6-1.4-6.9-2.3-10.1-4.4c-3.1-2.2-4.7-5.4-4.7-9.7c0-4.3,1.5-7.6,4.6-10.1c3-2.6,6.7-3.8,11-3.8c7.7,0,13.7,4,16.8,10.6
		l-6.7,3.8c-2-4.4-5.4-6.7-10.1-6.7c-4.6,0-7.6,2.3-7.6,6c0,3.6,2.3,5.2,9.7,7.5c1.8,0.6,3.2,1.1,4,1.4c0.9,0.3,2.1,0.8,3.6,1.4
		c1.6,0.6,2.8,1.3,3.5,1.9c2.6,2,5,5.2,5,9.9c0,4.3-1.6,7.8-4.7,10.4c-3.1,2.6-7.2,3.8-12.4,3.8C401.7,53,394.9,48.6,392.4,41.2
		L392.4,41.2z"/>
</g>
</svg>
