<?xml version="1.0" encoding="utf-8"?>
<!-- Generator: Adobe Illustrator 21.1.0, SVG Export Plug-In . SVG Version: 6.00 Build 0)  -->
<svg version="1.1" id="katman_1" xmlns="http://www.w3.org/2000/svg" xmlns:xlink="http://www.w3.org/1999/xlink" x="0px" y="0px"
	 viewBox="0 0 460 94" style="enable-background:new 0 0 460 94;" xml:space="preserve">
<style type="text/css">
	.st0{fill:#1C1C1B;}
	.st1{fill:#FFFFFF;}
	.st2{clip-path:url(#SVGID_2_);fill:#FFFFFF;}
</style>
<path d="M214.6,75.7h8.8L235.7,30v45.7h9.9V15.3H232l-12.3,44.3l-12.3-44.3h-13.9v60.4h8.5V30L214.6,75.7z M287,45.8
	c0-10.7-5.3-14.7-16.3-14.7c-6.9,0-12.3,2.1-15.5,4v8.5c2.7-2.1,8.8-4.3,14.2-4.3c5.1,0,7.2,1.9,7.2,6.4v2.4H275
	c-15.8,0-23,5.3-23,14.2s5.3,13.9,13.4,13.9c6.1,0,8.8-1.9,10.7-4h0.5c0,1.1,0.5,2.7,0.8,3.5h10.2c-0.3-3.5-0.5-7.2-0.5-10.7
	C287,65,287,45.8,287,45.8z M276.6,65.3c-1.3,1.9-3.7,3.5-7.5,3.5c-4.3,0-6.4-2.7-6.4-6.4c0-5.1,3.5-6.9,12.6-6.9h1.6v9.9h-0.3V65.3
	z M304.9,31.9h-9.6v56.4h10.4V70.7c2.7,4,6.4,5.9,11,5.9c10.2,0,17.1-8,17.1-22.7s-6.7-22.7-16.6-22.7c-4.8,0-8.8,2.1-11.8,6.4
	C305.5,37.5,304.9,31.9,304.9,31.9z M313.8,68.5c-5.3,0-8.3-4.5-8.3-14.4c0-10.2,2.9-14.7,8.8-14.7c5.6,0,8.5,4.5,8.5,14.4
	C322.8,64,319.9,68.5,313.8,68.5z M366.1,75.7h11.8l-16.6-23.5L376,31.9h-10.4l-14.7,20.3V31.9h-10.4v43.8h10.4V54.3L366.1,75.7z
	 M412.6,72.8v-8.5c-3.2,2.1-8.5,4-13.6,4c-7.5,0-10.4-3.5-11-11h24.8v-5.6c0-15.2-6.7-20.8-17.1-20.8c-12.6,0-18.7,9.6-18.7,23
	c0,15.2,7.5,22.7,20.6,22.7C404.9,76.5,409.7,74.9,412.6,72.8z M395.8,39.4c5.1,0,6.7,4.3,6.7,9.6v0.8H388
	C388.3,42.9,391,39.4,395.8,39.4z M450,40.2v-8.3h-34.7v8.3h12.3v35.5H438V40.2H450z"/>
<path class="st0" d="M131.8,86.4c22.2,0,40.1-17.9,40.1-40.1S154,6.2,131.8,6.2S91.7,24.1,91.7,46.3
	C91.5,68.5,109.7,86.4,131.8,86.4z"/>
<circle class="st0" cx="46.1" cy="46.3" r="40.1"/>
<path class="st1" d="M51.9,28.7h-4c-6.9,0-10.4,3.5-10.4,8.8c0,5.9,2.4,8.8,7.5,12.3l4,2.9L37.5,70.6h-9.4l11-16.3
	c-6.4-4.5-9.9-8.8-9.9-16.3c0-9.4,6.4-15.8,18.7-15.8h12.3v48.1h-8V28.6h-0.3V28.7z"/>
<g>
	<g>
		<defs>
			<path id="SVGID_1_" d="M131.8,86.4c22.2,0,40.1-17.9,40.1-40.1S154,6.2,131.8,6.2S91.7,24.1,91.7,46.3
				C91.5,68.5,109.7,86.4,131.8,86.4z"/>
		</defs>
		<clipPath id="SVGID_2_">
			<use xlink:href="#SVGID_1_"  style="overflow:visible;"/>
		</clipPath>
		<path class="st2" d="M112.1,28.2L76.8,74.4l9.4,10.7l26.2-34.7l-2.7,19l14.7,5.1l17.9-28.6c-0.8,5.3-2.1,17.6,9.6,21.4
			c18.4,5.6,34.5-27.5,41.9-44.3l-10.7-5.6C174.8,34.8,162,54,156.9,52.7s-0.5-17.6,2.4-28.1v-0.3L143,18.7l-19.5,31.8l2.7-17.4
			L112.1,28.2z"/>
	</g>
</g>
</svg>
