<?xml version="1.0" encoding="utf-8"?>
<!-- Generator: Adobe Illustrator 21.1.0, SVG Export Plug-In . SVG Version: 6.00 Build 0)  -->
<svg version="1.1" id="Layer_1" xmlns="http://www.w3.org/2000/svg" xmlns:xlink="http://www.w3.org/1999/xlink" x="0px" y="0px"
	 viewBox="0 0 101 100" style="enable-background:new 0 0 101 100;" xml:space="preserve">
<style type="text/css">
	.st0tg{clip-path:url(#SVGID_2_tg);fill:#262424;}
</style>
<g>
	<defs>
		<rect id="SVGID_1_tg" x="0.5" y="0" width="100" height="100"/>
	</defs>
	<clipPath id="SVGID_2_tg">
		<use xlink:href="#SVGID_1_tg"  style="overflow:visible;"/>
	</clipPath>
	<path class="st0tg" d="M93.5,7c-7-7-18.3-7-41-7h-4c-22.6,0-33.9,0-41,7c-7,7-7,18.3-7,41v4c0,22.6,0,33.9,7,41c7,7,18.3,7,41,7h4
		c22.6,0,33.9,0,41-7c7-7,7-18.3,7-41v-4C100.5,25.4,100.5,14.1,93.5,7z M69.8,34.3L62,70.9c-0.6,2.6-2.1,3.2-4.3,2l-11.8-8.7
		l-5.7,5.5c-0.6,0.6-1.2,1.2-2.4,1.2l0.9-12L60.6,39c1-0.8-0.2-1.3-1.5-0.5L32,55.6l-11.7-3.7c-2.5-0.8-2.6-2.5,0.5-3.8l45.6-17.6
		C68.6,29.8,70.5,31.1,69.8,34.3L69.8,34.3z"/>
</g>
</svg>
