<?xml version="1.0" encoding="utf-8"?>
<!-- Generator: Adobe Illustrator 21.1.0, SVG Export Plug-In . SVG Version: 6.00 Build 0)  -->
<svg version="1.1" id="Layer_1vk" xmlns="http://www.w3.org/2000/svg" xmlns:xlink="http://www.w3.org/1999/xlink" x="0px" y="0px"
	 viewBox="0 0 101 100" style="enable-background:new 0 0 101 100;" xml:space="preserve">
<style type="text/css">
	.st0vk{clip-path:url(#SVGID_2_vk);fill:#262424;}
</style>
<g>
	<defs>
		<rect id="SVGID_1_vk" x="0.5" y="0" width="100" height="100"/>
	</defs>
	<clipPath id="SVGID_2_vk">
		<use xlink:href="#SVGID_1_vk"  style="overflow:visible;"/>
	</clipPath>
	<path class="st0vk" d="M93.5,7c-7-7-18.3-7-41-7h-4c-22.6,0-33.9,0-41,7c-7,7-7,18.3-7,41v4c0,22.6,0,33.9,7,41c7,7,18.3,7,41,7h4
		c22.6,0,33.9,0,41-7c7-7,7-18.3,7-41v-4C100.5,25.4,100.5,14.1,93.5,7z M72.2,72c-2.5-7.9-8.9-14-17.2-14.9V72h-1.3
		c-22.8,0-35.8-15.6-36.3-41.6h11.4c0.4,19.1,8.8,27.2,15.5,28.8V30.4H55v16.5c6.6-0.7,13.5-8.2,15.8-16.5h10.8
		C79.8,40.6,72.3,48.1,67,51.2c5.3,2.5,13.9,9,17.1,20.9H72.2z"/>
</g>
</svg>
